<svg width="33" height="33" viewBox="0 0 33 33" fill="none" xmlns="http://www.w3.org/2000/svg">
<path d="M6.424 7.15L5.96585 4.4H4.32135C4.07605 3.454 3.22245 2.75 2.2 2.75C0.9867 2.75 0 3.7367 0 4.95C0 6.1633 0.9867 7.15 2.2 7.15C3.22245 7.15 4.07605 6.446 4.3219 5.5H5.0336L5.3086 7.15H5.2877L8.13175 21.4588C6.776 21.5622 5.64685 22.6061 5.51375 23.9195C5.43565 24.6923 5.68975 25.4661 6.21115 26.0414C6.7331 26.6184 7.4767 26.95 8.25 26.95H9.35C9.35 28.77 10.8301 30.25 12.65 30.25C14.47 30.25 15.95 28.77 15.95 26.95H22C22 28.77 23.4801 30.25 25.3 30.25C27.12 30.25 28.6 28.77 28.6 26.95H30.8C31.1042 26.95 31.35 26.7042 31.35 26.4C31.35 26.0958 31.1042 25.85 30.8 25.85H28.4075C27.9532 24.5702 26.7339 23.65 25.3 23.65C23.8661 23.65 22.6468 24.5702 22.1925 25.85H15.7575C15.3032 24.5702 14.0838 23.65 12.65 23.65C11.2162 23.65 9.9968 24.5702 9.5425 25.85H8.25C7.7869 25.85 7.3414 25.6509 7.0268 25.3039C6.70945 24.9524 6.5604 24.5003 6.60825 24.0301C6.69185 23.2001 7.45855 22.5506 8.3534 22.5506H8.78845C8.79615 22.5506 8.8022 22.5506 8.8099 22.5506H30.2566C31.7697 22.55 33 21.3197 33 19.8071V7.15H6.424ZM2.2 6.05C1.59335 6.05 1.1 5.55665 1.1 4.95C1.1 4.34335 1.59335 3.85 2.2 3.85C2.80665 3.85 3.3 4.34335 3.3 4.95C3.3 5.55665 2.80665 6.05 2.2 6.05Z" fill="#FFEC3F"/>
</svg>
